<?xml version="1.0" encoding="UTF-8" standalone="no"?>
<svg
   width="24px"
   height="24px"
   viewBox="0 0 24 24"
   stroke-width="1.5"
   fill="none"
   color="#000000"
   version="1.1"
   id="svg3"
   sodipodi:docname="fileglancer-solid.svg"
   inkscape:version="1.4 (e7c3feb1, 2024-10-09)"
   xmlns:inkscape="http://www.inkscape.org/namespaces/inkscape"
   xmlns:sodipodi="http://sodipodi.sourceforge.net/DTD/sodipodi-0.dtd"
   xmlns="http://www.w3.org/2000/svg"
   xmlns:svg="http://www.w3.org/2000/svg">
  <defs
     id="defs3" />
  <sodipodi:namedview
     id="namedview3"
     pagecolor="#ffffff"
     bordercolor="#000000"
     borderopacity="0.25"
     inkscape:showpageshadow="2"
     inkscape:pageopacity="0.0"
     inkscape:pagecheckerboard="0"
     inkscape:deskcolor="#d1d1d1"
     inkscape:zoom="21.020833"
     inkscape:cx="11.655104"
     inkscape:cy="8.9197225"
     inkscape:window-width="1536"
     inkscape:window-height="1252"
     inkscape:window-x="0"
     inkscape:window-y="25"
     inkscape:window-maximized="0"
     inkscape:current-layer="svg3" />
  <path
     d="M7 2L16.5 2L21 6.5V19"
     stroke="#000000"
     stroke-width="1.5"
     stroke-linecap="round"
     stroke-linejoin="round"
     id="path1" />
  <path
     d="M3 20.5V6.5C3 5.67157 3.67157 5 4.5 5H14.2515C14.4106 5 14.5632 5.06321 14.6757 5.17574L17.8243 8.32426C17.9368 8.43679 18 8.5894 18 8.74853V20.5C18 21.3284 17.3284 22 16.5 22H4.5C3.67157 22 3 21.3284 3 20.5Z"
     stroke="#000000"
     stroke-width="1.5"
     stroke-linecap="round"
     stroke-linejoin="round"
     id="path2" />
  <path
     d="M14 5V8.4C14 8.73137 14.2686 9 14.6 9H18"
     stroke="#000000"
     stroke-width="1.5"
     stroke-linecap="round"
     stroke-linejoin="round"
     id="path3" />
  <path
     d="m 4.6880193,14.484466 c 2.3177556,-5.150567 9.2710227,-5.150567 11.5887787,0"
     stroke="#000000"
     stroke-width="0.965733"
     stroke-linecap="round"
     stroke-linejoin="round"
     id="path1-0" />
  <path
     d="m 10.482409,17.05975 c -1.0667477,0 -1.9314637,-0.864716 -1.9314637,-1.931463 0,-1.066747 0.864716,-1.931462 1.9314637,-1.931462 1.066747,0 1.931463,0.864715 1.931463,1.931462 0,1.066747 -0.864716,1.931463 -1.931463,1.931463 z"
     fill="#000000"
     stroke="#000000"
     stroke-width="0.965733"
     stroke-linecap="round"
     stroke-linejoin="round"
     id="path2-3" />
</svg>
